<svg xmlns="http://www.w3.org/2000/svg" xmlns:xlink="http://www.w3.org/1999/xlink" width="500" zoomAndPan="magnify" viewBox="0 0 375 374.999991" height="500" preserveAspectRatio="xMidYMid meet" version="1.2"><defs><clipPath id="04eb7315e8"><path d="M 64.414062 68.773438 L 310.414062 68.773438 L 310.414062 306 L 64.414062 306 Z M 64.414062 68.773438 "/></clipPath><clipPath id="334bbd914e"><path d="M 15.183594 349.097656 L 26.433594 349.097656 L 26.433594 360.347656 L 15.183594 360.347656 Z M 15.183594 349.097656 "/></clipPath></defs><g id="b84e92fb6f"><rect x="0" width="375" y="0" height="374.999991" style="fill:#ffffff;fill-opacity:1;stroke:none;"/><rect x="0" width="375" y="0" height="374.999991" style="fill:#000000;fill-opacity:1;stroke:none;"/><g clip-rule="nonzero" clip-path="url(#04eb7315e8)"><path style=" stroke:none;fill-rule:nonzero;fill:#ffffff;fill-opacity:1;" d="M 257.898438 110.195312 C 255.554688 110.195312 253.144531 110.367188 250.714844 110.703125 C 241.917969 85.933594 216.390625 68.855469 187.621094 68.855469 C 158.855469 68.855469 133.328125 85.933594 124.53125 110.703125 C 122.097656 110.367188 119.695312 110.195312 117.347656 110.195312 C 88.285156 110.195312 64.636719 133.839844 64.636719 162.902344 C 64.636719 191.964844 88.285156 215.609375 117.347656 215.609375 L 133.167969 215.609375 L 133.167969 167.25 C 133.167969 163.019531 129.734375 159.585938 125.503906 159.585938 L 101.269531 159.585938 C 99.558594 159.585938 98.167969 158.199219 98.167969 156.484375 C 98.167969 154.773438 99.558594 153.386719 101.269531 153.386719 L 106.375 153.386719 C 106.710938 153.507812 125.902344 153.601562 125.902344 153.601562 C 129.585938 153.601562 132.925781 155.097656 135.355469 157.507812 C 137.195312 159.367188 138.515625 161.746094 139.070312 164.40625 C 139.238281 165.257812 139.335938 166.132812 139.335938 167.035156 L 139.335938 248.085938 L 130.035156 248.085938 C 128.324219 248.085938 126.933594 249.476562 126.933594 251.1875 L 126.933594 275.992188 C 126.933594 277.703125 128.324219 279.089844 130.035156 279.089844 L 154.835938 279.089844 C 156.550781 279.089844 157.9375 277.703125 157.9375 275.992188 L 157.9375 251.1875 C 157.9375 249.476562 156.550781 248.085938 154.835938 248.085938 L 145.535156 248.085938 L 145.535156 215.609375 L 178.320312 215.609375 L 178.320312 150.5 C 178.320312 148.789062 179.710938 147.398438 181.421875 147.398438 C 183.132812 147.398438 184.523438 148.789062 184.523438 150.5 L 184.523438 274.976562 L 175.222656 274.976562 C 173.507812 274.976562 172.121094 276.367188 172.121094 278.078125 L 172.121094 302.882812 C 172.121094 304.59375 173.507812 305.980469 175.222656 305.980469 L 200.023438 305.980469 C 201.734375 305.980469 203.125 304.59375 203.125 302.882812 L 203.125 278.078125 C 203.125 276.367188 201.734375 274.976562 200.023438 274.976562 L 190.722656 274.976562 L 190.722656 215.609375 L 229.707031 215.609375 L 229.707031 248.085938 L 220.40625 248.085938 C 218.695312 248.085938 217.308594 249.476562 217.308594 251.1875 L 217.308594 275.992188 C 217.308594 277.703125 218.695312 279.089844 220.40625 279.089844 L 245.210938 279.089844 C 246.921875 279.089844 248.3125 277.703125 248.3125 275.992188 L 248.3125 251.1875 C 248.3125 249.476562 246.921875 248.085938 245.210938 248.085938 L 235.910156 248.085938 L 235.910156 167.035156 C 235.910156 166.136719 236.003906 165.257812 236.175781 164.40625 C 236.730469 161.746094 238.050781 159.367188 239.890625 157.503906 C 242.320312 155.09375 245.660156 153.601562 249.34375 153.601562 C 249.34375 153.601562 268.535156 153.507812 268.871094 153.386719 L 273.976562 153.386719 C 275.6875 153.386719 277.078125 154.773438 277.078125 156.484375 C 277.078125 158.199219 275.6875 159.585938 273.976562 159.585938 L 249.742188 159.585938 C 245.511719 159.585938 242.078125 163.019531 242.078125 167.25 L 242.078125 215.609375 L 257.898438 215.609375 C 286.960938 215.609375 310.605469 191.964844 310.605469 162.902344 C 310.605469 133.839844 286.960938 110.195312 257.898438 110.195312 Z M 257.898438 110.195312 "/></g><g clip-rule="nonzero" clip-path="url(#334bbd914e)"><path style=" stroke:none;fill-rule:nonzero;fill:#ffffff;fill-opacity:1;" d="M 20.808594 349.097656 C 17.707031 349.097656 15.183594 351.621094 15.183594 354.722656 C 15.183594 357.824219 17.707031 360.347656 20.808594 360.347656 C 23.910156 360.347656 26.433594 357.824219 26.433594 354.722656 C 26.433594 351.621094 23.910156 349.097656 20.808594 349.097656 Z M 20.808594 350.222656 C 23.300781 350.222656 25.308594 352.230469 25.308594 354.722656 C 25.308594 357.214844 23.300781 359.222656 20.808594 359.222656 C 18.316406 359.222656 16.308594 357.214844 16.308594 354.722656 C 16.308594 352.230469 18.316406 350.222656 20.808594 350.222656 Z M 20.808594 351.914062 C 20.085938 351.914062 19.367188 352.1875 18.820312 352.734375 C 17.726562 353.828125 17.726562 355.617188 18.820312 356.710938 C 19.914062 357.804688 21.703125 357.804688 22.796875 356.710938 L 22 355.914062 C 21.339844 356.578125 20.277344 356.578125 19.617188 355.914062 C 18.953125 355.253906 18.953125 354.191406 19.617188 353.53125 C 20.277344 352.867188 21.339844 352.867188 22 353.53125 L 22.796875 352.734375 C 22.25 352.1875 21.53125 351.914062 20.808594 351.914062 Z M 20.808594 351.914062 "/></g></g></svg>