<svg width="52" height="52" viewBox="0 0 52 52" fill="none" xmlns="http://www.w3.org/2000/svg">
<rect width="52" height="52" fill="black"/>
<path d="M7.592 18.1837L10.728 7.62365H12.232L15.368 18.1837H14.04L13.24 15.3997H9.688L8.888 18.1837H7.592ZM10.008 14.2477H12.92L11.496 9.25565H11.432L10.008 14.2477Z" fill="white"/>
<path d="M38.6 43.6531V33.0931H41.96C44.04 33.0931 45.16 34.1491 45.16 36.1331C45.16 38.1171 44.04 39.1731 41.96 39.1731H39.88V43.6531H38.6ZM39.88 38.0211H41.8C43.176 38.0211 43.832 37.3971 43.832 36.1331C43.832 34.8691 43.176 34.2451 41.8 34.2451H39.88V38.0211Z" fill="white"/>
<path d="M22.3034 26.8704V25.6224H28.7034V26.8704H22.3034Z" fill="white"/>
</svg>
