<svg version="1.1" id="Layer_1" xmlns="http://www.w3.org/2000/svg" xmlns:xlink="http://www.w3.org/1999/xlink" x="0px" y="0px"
	 width="100%" viewBox="0 0 500 500" enable-background="new 0 0 500 500" xml:space="preserve">
<path fill="#000000" opacity="1.000000" stroke="none" 
	d="
M241.000000,501.000000 
	C160.666687,501.000000 80.833374,501.000000 1.000043,501.000000 
	C1.000029,334.333405 1.000029,167.666779 1.000014,1.000132 
	C167.666565,1.000088 334.333130,1.000088 500.999756,1.000044 
	C500.999847,167.666519 500.999847,334.333038 500.999939,500.999786 
	C414.500000,501.000000 328.000000,501.000000 241.000000,501.000000 
M200.115784,155.809235 
	C197.413818,155.860794 194.711853,155.912354 191.257507,155.745850 
	C187.834930,155.813904 184.412338,155.881958 180.077515,155.781921 
	C176.051315,155.847778 172.025101,155.913635 167.091156,155.788712 
	C163.061996,155.857666 159.032822,155.926605 154.102356,155.809769 
	C150.736099,155.877197 147.369843,155.944626 143.120667,155.813080 
	C140.413559,155.879272 137.706451,155.945465 134.184998,155.815323 
	C127.674248,156.080902 126.009392,157.732391 126.007729,164.239273 
	C125.992111,225.282028 125.990227,286.324799 126.010147,347.367554 
	C126.012413,354.324310 128.033813,356.156769 135.889603,355.978180 
	C138.593811,355.929810 141.298004,355.881439 144.918274,355.977783 
	C148.945114,355.929657 152.971954,355.881561 157.910690,355.977631 
	C161.606689,355.929565 165.302673,355.881500 169.905594,355.977142 
	C173.269897,355.929169 176.634216,355.881195 180.889816,355.976654 
	C183.594055,355.928986 186.298309,355.881348 189.906479,355.976837 
	C193.270920,355.928925 196.635345,355.881042 200.899109,355.976257 
	C203.934372,355.928436 206.969620,355.880646 210.903427,355.975647 
	C213.937042,355.928040 216.970673,355.880432 220.902878,355.976044 
	C223.936157,355.928650 226.969421,355.881256 230.901550,355.976440 
	C233.936523,355.929993 236.971481,355.883514 240.912231,355.981476 
	C244.277039,355.936310 247.641846,355.891144 251.917465,355.990875 
	C255.615128,355.941193 259.312805,355.891510 263.936493,355.985779 
	C270.949341,355.934265 277.962189,355.882751 285.890106,355.980865 
	C289.586823,355.931519 293.283569,355.882172 297.883331,355.976044 
	C300.918610,355.927795 303.953888,355.879547 307.889038,355.976349 
	C310.924530,355.928589 313.959991,355.880859 317.894714,355.976898 
	C320.928375,355.928833 323.962036,355.880768 327.887329,355.975464 
	C330.590881,355.928101 333.294434,355.880737 336.897308,355.975525 
	C339.931824,355.928101 342.966309,355.880707 346.917450,355.975128 
	C350.940765,355.932953 354.964111,355.890778 359.879761,355.995514 
	C362.588196,355.948120 365.296661,355.900726 368.788879,355.982574 
	C374.098267,355.428070 375.736786,353.656982 375.790527,347.843384 
	C375.911896,334.700623 375.963867,321.556732 375.955841,308.413330 
	C375.934448,273.306885 375.879608,238.200394 375.806030,203.093994 
	C375.791351,196.092133 374.233673,194.230148 367.120514,193.178787 
	C364.075439,193.240936 361.030396,193.303085 357.078278,193.203018 
	C353.390717,193.258926 349.703156,193.314835 345.119171,193.187378 
	C342.072021,193.248489 339.024902,193.309616 335.081024,193.202423 
	C331.724579,193.258118 328.368103,193.313812 324.123535,193.185852 
	C321.407074,193.247757 318.690643,193.309647 315.073669,193.204605 
	C311.711731,193.265259 308.349792,193.325897 304.067749,193.207336 
	C296.053833,193.263962 288.039948,193.320602 279.112122,193.205490 
	C275.403687,193.240936 271.695251,193.276382 267.402283,192.889099 
	C263.958588,186.917572 260.514893,180.946060 256.968231,174.264420 
	C254.268600,169.329315 251.823624,164.226105 248.735123,159.547714 
	C247.611084,157.845047 244.953384,157.154877 242.098038,155.803207 
	C238.730026,155.871658 235.362015,155.940094 231.105789,155.804993 
	C228.069351,155.873413 225.032913,155.941818 221.101578,155.807953 
	C217.734009,155.875641 214.366455,155.943314 210.109070,155.808899 
	C207.071228,155.876038 204.033401,155.943192 200.115784,155.809235 
z"/>
<path fill="#18BFE9" opacity="1.000000" stroke="none" 
	d="
M134.998596,355.833374 
	C128.033813,356.156769 126.012413,354.324310 126.010147,347.367554 
	C125.990227,286.324799 125.992111,225.282028 126.007729,164.239273 
	C126.009392,157.732391 127.674248,156.080902 134.592346,156.381378 
	C134.999329,223.242752 134.998962,289.538055 134.998596,355.833374 
z"/>
<path fill="#EA536C" opacity="1.000000" stroke="none" 
	d="
M368.017578,193.360687 
	C374.233673,194.230148 375.791351,196.092133 375.806030,203.093994 
	C375.879608,238.200394 375.934448,273.306885 375.955841,308.413330 
	C375.963867,321.556732 375.911896,334.700623 375.790527,347.843384 
	C375.736786,353.656982 374.098267,355.428070 368.393463,355.458679 
	C368.004547,301.076782 368.011078,247.218735 368.017578,193.360687 
z"/>
<path fill="#DE5371" opacity="1.000000" stroke="none" 
	d="
M367.569031,193.269745 
	C368.011078,247.218735 368.004547,301.076782 368.001587,355.394104 
	C365.296661,355.900726 362.588196,355.948120 359.438904,355.463165 
	C358.994232,347.671112 358.990448,340.411438 359.426300,333.058655 
	C360.323151,332.569000 361.081787,332.233765 361.177399,331.763672 
	C361.405731,330.641510 361.357788,329.455719 361.358002,328.295624 
	C361.364471,292.765198 361.358551,257.234802 361.373322,221.704391 
	C361.374359,219.212662 361.864044,216.491470 357.987793,216.188629 
	C357.987854,208.283707 357.986603,200.824463 357.985321,193.365234 
	C361.030396,193.303085 364.075439,193.240936 367.569031,193.269745 
z"/>
<path fill="#21BBE9" opacity="1.000000" stroke="none" 
	d="
M135.444092,355.905762 
	C134.998962,289.538055 134.999329,223.242752 134.999512,156.479553 
	C137.706451,155.945465 140.413559,155.879272 143.561584,156.380371 
	C144.000092,164.126663 143.997696,171.305649 143.642517,178.490738 
	C139.239777,177.959229 140.235275,180.927032 140.234222,183.033752 
	C140.209991,231.581375 140.214050,280.129028 140.223923,328.676666 
	C140.224197,329.988312 140.347214,331.299988 140.418381,332.719208 
	C141.726562,332.882812 142.864563,333.025146 144.002502,333.625549 
	C144.002365,341.333466 144.002289,348.583252 144.002213,355.833069 
	C141.298004,355.881439 138.593811,355.929810 135.444092,355.905762 
z"/>
<path fill="#B177D3" opacity="1.000000" stroke="none" 
	d="
M284.975037,355.831238 
	C277.962189,355.882751 270.949341,355.934265 263.472656,355.455261 
	C263.009277,347.669373 263.009766,340.414032 263.472656,333.086731 
	C270.948303,333.066315 277.961517,333.117798 284.977295,333.627319 
	C284.978241,341.333954 284.976624,348.582581 284.975037,355.831238 
z"/>
<path fill="#A07FE8" opacity="1.000000" stroke="none" 
	d="
M242.995407,156.002747 
	C244.953384,157.154877 247.611084,157.845047 248.735123,159.547714 
	C251.823624,164.226105 254.268600,169.329315 256.661804,174.784439 
	C255.904221,177.301666 255.174591,179.281769 255.050583,181.299088 
	C254.535950,189.669876 254.204147,198.051895 253.522614,206.210480 
	C248.904175,197.992554 244.568390,189.993942 240.584869,181.878616 
	C241.622620,180.065613 242.842819,178.387024 242.899704,176.669907 
	C243.127625,169.787354 242.994812,162.892838 242.995407,156.002747 
z"/>
<path fill="#A77ADD" opacity="1.000000" stroke="none" 
	d="
M253.805252,206.429794 
	C254.204147,198.051895 254.535950,189.669876 255.050583,181.299088 
	C255.174591,179.281769 255.904221,177.301666 256.713257,175.139496 
	C260.514893,180.946060 263.958588,186.917572 267.598602,193.487000 
	C267.529938,199.702011 267.411316,205.331940 266.921143,210.929337 
	C266.747803,212.908691 265.667694,214.808624 264.623352,216.855927 
	C257.369171,216.819229 256.231232,210.986420 253.805252,206.429794 
z"/>
<path fill="#C16EB9" opacity="1.000000" stroke="none" 
	d="
M280.026031,193.377243 
	C288.039948,193.320602 296.053833,193.263962 304.529114,193.740784 
	C304.992004,201.793655 304.993561,209.313110 304.533264,216.869385 
	C300.048431,216.810623 296.025452,216.714996 292.001312,216.174896 
	C292.000092,212.573029 292.000000,209.415665 292.000000,206.258286 
	C291.999969,194.179123 292.000000,194.179123 279.996277,193.784393 
	C279.993256,193.648041 280.026031,193.377243 280.026031,193.377243 
z"/>
<path fill="#E15B82" opacity="1.000000" stroke="none" 
	d="
M358.986633,333.151733 
	C358.990448,340.411438 358.994232,347.671112 358.992737,355.389709 
	C354.964111,355.890778 350.940765,355.932953 346.459259,355.446289 
	C346.000824,347.667297 346.000549,340.417175 346.458618,333.096252 
	C350.940216,333.067535 354.963409,333.109619 358.986633,333.151733 
z"/>
<path fill="#2FB4EA" opacity="1.000000" stroke="none" 
	d="
M144.460236,355.905396 
	C144.002289,348.583252 144.002365,341.333466 144.460510,333.553314 
	C148.945435,333.070984 152.972305,333.119019 156.999374,333.625183 
	C156.999329,341.333374 156.999069,348.583405 156.998795,355.833435 
	C152.971954,355.881561 148.945114,355.929657 144.460236,355.905396 
z"/>
<path fill="#39A9E2" opacity="1.000000" stroke="none" 
	d="
M155.003662,155.995560 
	C159.032822,155.926605 163.061996,155.857666 167.545502,156.354004 
	C167.998993,164.105637 167.998123,171.291962 167.534683,178.499390 
	C163.039673,178.509583 159.007248,178.498672 154.978760,178.051270 
	C154.989716,170.408356 154.996689,163.201965 155.003662,155.995560 
z"/>
<path fill="#48A2E2" opacity="1.000000" stroke="none" 
	d="
M167.997253,178.478271 
	C167.998123,171.291962 167.998993,164.105637 167.999390,156.449402 
	C172.025101,155.913635 176.051315,155.847778 180.546631,156.337616 
	C181.001755,164.088989 180.987747,171.284683 180.513153,178.503601 
	C176.034119,178.510651 172.015686,178.494461 167.997253,178.478271 
z"/>
<path fill="#B177D3" opacity="1.000000" stroke="none" 
	d="
M279.569092,193.291367 
	C280.026031,193.377243 279.993256,193.648041 279.774597,194.142746 
	C279.364899,201.964966 279.173859,209.292465 278.526611,216.707306 
	C273.714172,216.778030 269.357849,216.761429 265.001556,216.744843 
	C265.667694,214.808624 266.747803,212.908691 266.921143,210.929337 
	C267.411316,205.331940 267.529938,199.702011 267.890869,193.698364 
	C271.695251,193.276382 275.403687,193.240936 279.569092,193.291367 
z"/>
<path fill="#E15B82" opacity="1.000000" stroke="none" 
	d="
M357.531799,193.284119 
	C357.986603,200.824463 357.987854,208.283707 357.534180,216.269608 
	C353.388336,216.740448 349.697418,216.684616 346.006348,216.183411 
	C346.009338,208.282272 346.012451,200.826508 346.015564,193.370728 
	C349.703156,193.314835 353.390717,193.258926 357.531799,193.284119 
z"/>
<path fill="#A77ADD" opacity="1.000000" stroke="none" 
	d="
M263.010223,333.158691 
	C263.009766,340.414032 263.009277,347.669373 263.009644,355.383240 
	C259.312805,355.891510 255.615128,355.941193 251.462433,355.459595 
	C251.007065,347.670380 251.006699,340.412445 251.461304,333.082092 
	C255.614243,333.059357 259.312225,333.109009 263.010223,333.158691 
z"/>
<path fill="#B672C4" opacity="1.000000" stroke="none" 
	d="
M285.432556,355.906067 
	C284.976624,348.582581 284.978241,341.333954 285.435303,333.552551 
	C289.587067,333.069092 293.283386,333.118408 296.981415,333.625824 
	C296.982178,341.333557 296.981232,348.583160 296.980286,355.832794 
	C293.283569,355.882172 289.586823,355.931519 285.432556,355.906067 
z"/>
<path fill="#3EAEEA" opacity="1.000000" stroke="none" 
	d="
M157.454742,355.905518 
	C156.999069,348.583405 156.999329,341.333374 157.455307,333.553284 
	C161.607025,333.071167 165.303024,333.119141 168.999115,333.625244 
	C168.999039,341.333374 168.998856,348.583405 168.998672,355.833435 
	C165.302673,355.881500 161.606689,355.929565 157.454742,355.905518 
z"/>
<path fill="#C86AAD" opacity="1.000000" stroke="none" 
	d="
M304.995117,216.832550 
	C304.993561,209.313110 304.992004,201.793655 304.989136,193.830383 
	C308.349792,193.325897 311.711731,193.265259 315.527191,193.732849 
	C315.983246,201.788712 315.985748,209.316330 315.534851,216.909180 
	C311.719330,216.927094 308.357239,216.879822 304.995117,216.832550 
z"/>
<path fill="#5391D4" opacity="1.000000" stroke="none" 
	d="
M180.973740,178.480377 
	C180.987747,171.284683 181.001755,164.088989 181.002762,156.421661 
	C184.412338,155.881958 187.834930,155.813904 191.618011,156.325577 
	C191.999039,164.098892 192.019562,171.292496 191.580505,178.529877 
	C187.738541,178.542572 184.356140,178.511475 180.973740,178.480377 
z"/>
<path fill="#D46398" opacity="1.000000" stroke="none" 
	d="
M325.011658,193.369507 
	C328.368103,193.313812 331.724579,193.258118 335.532227,193.731354 
	C335.984955,201.716431 335.986450,209.172562 335.537170,216.712189 
	C331.725189,216.740295 328.364014,216.684937 325.003052,216.184174 
	C325.006042,208.282349 325.008850,200.825928 325.011658,193.369507 
z"/>
<path fill="#9287EC" opacity="1.000000" stroke="none" 
	d="
M242.546722,155.902985 
	C242.994812,162.892838 243.127625,169.787354 242.899704,176.669907 
	C242.842819,178.387024 241.622620,180.065613 240.343353,181.565338 
	C238.271255,177.452194 234.872925,178.689407 232.009033,178.049530 
	C232.002502,170.411606 231.998245,163.210068 231.994003,156.008545 
	C235.362015,155.940094 238.730026,155.871658 242.546722,155.902985 
z"/>
<path fill="#4BA8EA" opacity="1.000000" stroke="none" 
	d="
M169.452133,355.905273 
	C168.998856,348.583405 168.999039,341.333374 169.452606,333.553467 
	C173.270142,333.071472 176.634277,333.119385 179.998566,333.625397 
	C179.998657,341.333435 179.998596,348.583344 179.998520,355.833252 
	C176.634216,355.881195 173.269897,355.929169 169.452133,355.905273 
z"/>
<path fill="#639DEB" opacity="1.000000" stroke="none" 
	d="
M199.999786,355.833160 
	C196.635345,355.881042 193.270920,355.928925 189.454010,355.447266 
	C189.001694,347.667358 189.001862,340.417084 189.455292,333.095428 
	C193.272263,333.071808 196.635956,333.119568 199.999573,333.625427 
	C199.999588,341.333435 199.999695,348.583282 199.999786,355.833160 
z"/>
<path fill="#7C91EB" opacity="1.000000" stroke="none" 
	d="
M210.998886,156.011002 
	C214.366455,155.943314 217.734009,155.875641 221.549530,156.377014 
	C222.000854,164.125778 222.004242,171.305466 221.548950,178.493576 
	C217.729431,178.496475 214.368591,178.490967 211.006592,178.049103 
	C211.003235,170.412155 211.001068,163.211578 210.998886,156.011002 
z"/>
<path fill="#2FB4EA" opacity="1.000000" stroke="none" 
	d="
M154.553009,155.902664 
	C154.996689,163.201965 154.989716,170.408356 154.522797,178.055878 
	C150.707016,178.492874 147.351166,178.488770 143.995300,178.484650 
	C143.997696,171.305649 144.000092,164.126663 144.003036,156.479858 
	C147.369843,155.944626 150.736099,155.877197 154.553009,155.902664 
z"/>
<path fill="#A07FE8" opacity="1.000000" stroke="none" 
	d="
M251.006348,333.154480 
	C251.006699,340.412445 251.007065,347.670380 251.007034,355.387146 
	C247.641846,355.891144 244.277039,355.936310 240.458344,355.450989 
	C240.004791,347.668152 240.005112,340.415802 240.458130,333.091278 
	C244.276001,333.064240 247.641174,333.109344 251.006348,333.154480 
z"/>
<path fill="#D35D8A" opacity="1.000000" stroke="none" 
	d="
M335.987946,216.628708 
	C335.986450,209.172562 335.984955,201.716431 335.980591,193.815506 
	C339.024902,193.309616 342.072021,193.248489 345.567383,193.279053 
	C346.012451,200.826508 346.009338,208.282272 345.559082,216.274963 
	C342.070587,216.750809 339.029266,216.689758 335.987946,216.628708 
z"/>
<path fill="#CF66A1" opacity="1.000000" stroke="none" 
	d="
M326.995697,355.832703 
	C323.962036,355.880768 320.928375,355.928833 317.446014,355.447021 
	C316.996582,347.667206 316.995850,340.417267 317.444916,333.095520 
	C320.928589,333.071716 323.962402,333.119720 326.996826,333.625824 
	C326.996826,341.333527 326.996246,348.583099 326.995697,355.832703 
z"/>
<path fill="#DB5F8E" opacity="1.000000" stroke="none" 
	d="
M346.000275,333.167053 
	C346.000549,340.417175 346.000824,347.667297 346.000946,355.375366 
	C342.966309,355.880707 339.931824,355.928101 336.448059,355.446503 
	C335.998413,347.667328 335.998016,340.417175 336.447388,333.096069 
	C339.931519,333.072418 342.965912,333.119751 346.000275,333.167053 
z"/>
<path fill="#C86AAD" opacity="1.000000" stroke="none" 
	d="
M316.995087,333.167297 
	C316.995850,340.417267 316.996582,347.667206 316.996399,355.375122 
	C313.959991,355.880859 310.924530,355.928589 307.440826,355.445984 
	C306.990997,347.666748 306.989380,340.417908 307.438354,333.096741 
	C310.924316,333.072021 313.959717,333.119659 316.995087,333.167297 
z"/>
<path fill="#C16EB9" opacity="1.000000" stroke="none" 
	d="
M306.987793,333.169067 
	C306.989380,340.417908 306.990997,347.666748 306.990906,355.373444 
	C303.953888,355.879547 300.918610,355.927795 297.431824,355.904419 
	C296.981232,348.583160 296.982178,341.333557 297.433044,333.554260 
	C300.917908,333.072754 303.952850,333.120911 306.987793,333.169067 
z"/>
<path fill="#868DEB" opacity="1.000000" stroke="none" 
	d="
M222.007629,178.485168 
	C222.004242,171.305466 222.000854,164.125778 221.996979,156.478149 
	C225.032913,155.941818 228.069351,155.873413 231.549896,155.906769 
	C231.998245,163.210068 232.002502,170.411606 231.553955,178.058197 
	C228.069977,178.497238 225.038803,178.491211 222.007629,178.485168 
z"/>
<path fill="#9287EC" opacity="1.000000" stroke="none" 
	d="
M240.005432,333.163422 
	C240.005112,340.415802 240.004791,347.668152 240.005463,355.378784 
	C236.971481,355.883514 233.936523,355.929993 230.451477,355.447083 
	C230.001648,347.667358 230.001877,340.416992 230.451599,333.095398 
	C233.935867,333.070648 236.970657,333.117035 240.005432,333.163422 
z"/>
<path fill="#868DEB" opacity="1.000000" stroke="none" 
	d="
M230.002106,333.166595 
	C230.001877,340.416992 230.001648,347.667358 230.002045,355.375793 
	C226.969421,355.881256 223.936157,355.928650 220.452789,355.446472 
	C220.003021,347.667145 220.003357,340.417389 220.452942,333.096161 
	C223.935471,333.071991 226.968796,333.119293 230.002106,333.166595 
z"/>
<path fill="#7C91EB" opacity="1.000000" stroke="none" 
	d="
M220.003708,333.167664 
	C220.003357,340.417389 220.003021,347.667145 220.003479,355.374847 
	C216.970673,355.880432 213.937042,355.928040 210.453308,355.446289 
	C210.003571,347.667175 210.003937,340.417389 210.453491,333.096344 
	C213.936356,333.072601 216.970032,333.120148 220.003708,333.167664 
z"/>
<path fill="#6F97EB" opacity="1.000000" stroke="none" 
	d="
M210.004288,333.167633 
	C210.003937,340.417389 210.003571,347.667175 210.004044,355.374878 
	C206.969620,355.880646 203.934372,355.928436 200.449448,355.904724 
	C199.999695,348.583282 199.999588,341.333435 200.449249,333.554016 
	C203.934113,333.072205 206.969208,333.119904 210.004288,333.167633 
z"/>
<path fill="#6F97EB" opacity="1.000000" stroke="none" 
	d="
M210.553986,155.909943 
	C211.001068,163.211578 211.003235,170.412155 210.551788,178.057251 
	C207.066879,178.496170 204.035614,178.490555 201.003143,178.048615 
	C200.999802,170.411636 200.997681,163.210983 200.995560,156.010330 
	C204.033401,155.943192 207.071228,155.876038 210.553986,155.909943 
z"/>
<path fill="#C5649F" opacity="1.000000" stroke="none" 
	d="
M324.567596,193.277679 
	C325.008850,200.825928 325.006042,208.282349 324.567932,216.312408 
	C321.417847,216.872025 318.703064,216.857986 315.988281,216.843964 
	C315.985748,209.316330 315.983246,201.788712 315.977448,193.816315 
	C318.690643,193.309647 321.407074,193.247757 324.567596,193.277679 
z"/>
<path fill="#57A2EA" opacity="1.000000" stroke="none" 
	d="
M189.002014,333.166779 
	C189.001862,340.417084 189.001694,347.667358 189.002045,355.375671 
	C186.298309,355.881348 183.594055,355.928986 180.444168,355.904968 
	C179.998596,348.583344 179.998657,341.333435 180.444275,333.553802 
	C183.593887,333.071625 186.297943,333.119202 189.002014,333.166779 
z"/>
<path fill="#639DEB" opacity="1.000000" stroke="none" 
	d="
M200.555664,155.909790 
	C200.997681,163.210983 200.999802,170.411636 200.554047,178.056412 
	C197.417450,178.495712 194.728760,178.490906 192.040070,178.486084 
	C192.019562,171.292496 191.999039,164.098892 191.994202,156.434601 
	C194.711853,155.912354 197.413818,155.860794 200.555664,155.909790 
z"/>
<path fill="#D46398" opacity="1.000000" stroke="none" 
	d="
M335.997589,333.166992 
	C335.998016,340.417175 335.998413,347.667328 335.998413,355.375427 
	C333.294434,355.880737 330.590881,355.928101 327.441528,355.904083 
	C326.996246,348.583099 326.996826,341.333527 327.442566,333.554504 
	C330.591034,333.072418 333.294312,333.119720 335.997589,333.166992 
z"/>
<path fill="#000000" opacity="1.000000" stroke="none" 
	d="
M336.447388,333.096039 
	C333.294312,333.119720 330.591034,333.072418 327.442017,333.096436 
	C323.962402,333.119720 320.928589,333.071716 317.444916,333.095520 
	C313.959717,333.119659 310.924316,333.072021 307.438354,333.096741 
	C303.952850,333.120911 300.917908,333.072754 297.431335,333.096191 
	C293.283386,333.118408 289.587067,333.069092 285.432739,333.094543 
	C277.961517,333.117798 270.948303,333.066315 263.472656,333.086731 
	C259.312225,333.109009 255.614243,333.059357 251.461304,333.082092 
	C247.641174,333.109344 244.276001,333.064240 240.458130,333.091278 
	C236.970657,333.117035 233.935867,333.070648 230.451599,333.095398 
	C226.968796,333.119293 223.935471,333.071991 220.452942,333.096161 
	C216.970032,333.120148 213.936356,333.072601 210.453491,333.096344 
	C206.969208,333.119904 203.934113,333.072205 200.449341,333.095886 
	C196.635956,333.119568 193.272263,333.071808 189.455292,333.095428 
	C186.297943,333.119202 183.593887,333.071625 180.444122,333.095673 
	C176.634277,333.119385 173.270142,333.071472 169.452515,333.095337 
	C165.303024,333.119141 161.607025,333.071167 157.455093,333.095123 
	C152.972305,333.119019 148.945435,333.070984 144.460571,333.095215 
	C142.864563,333.025146 141.726562,332.882812 140.418381,332.719208 
	C140.347214,331.299988 140.224197,329.988312 140.223923,328.676666 
	C140.214050,280.129028 140.209991,231.581375 140.234222,183.033752 
	C140.235275,180.927032 139.239777,177.959229 143.642517,178.490753 
	C147.351166,178.488770 150.707016,178.492874 154.518829,178.492371 
	C159.007248,178.498672 163.039673,178.509583 167.534683,178.499390 
	C172.015686,178.494461 176.034119,178.510651 180.513153,178.503601 
	C184.356140,178.511475 187.738541,178.542572 191.580505,178.529877 
	C194.728760,178.490906 197.417450,178.495712 200.555237,178.492737 
	C204.035614,178.490555 207.066879,178.496170 210.552948,178.493622 
	C214.368591,178.490967 217.729431,178.496475 221.548950,178.493576 
	C225.038803,178.491211 228.069977,178.497238 231.556244,178.494598 
	C234.872925,178.689407 238.271255,177.452194 239.991104,181.682037 
	C244.568390,189.993942 248.904175,197.992554 253.522614,206.210480 
	C256.231232,210.986420 257.369171,216.819229 264.623352,216.855927 
	C269.357849,216.761429 273.714172,216.778030 278.982635,216.801971 
	C283.930695,216.746002 287.966583,216.682678 292.002472,216.619370 
	C296.025452,216.714996 300.048431,216.810623 304.533264,216.869385 
	C308.357239,216.879822 311.719330,216.927094 315.534851,216.909164 
	C318.703064,216.857986 321.417847,216.872025 324.567749,216.757812 
	C328.364014,216.684937 331.725189,216.740295 335.537170,216.712189 
	C339.029266,216.689758 342.070587,216.750809 345.559204,216.720337 
	C349.697418,216.684616 353.388336,216.740448 357.532837,216.715302 
	C361.864044,216.491470 361.374359,219.212662 361.373322,221.704391 
	C361.358551,257.234802 361.364471,292.765198 361.358002,328.295624 
	C361.357788,329.455719 361.405731,330.641510 361.177399,331.763672 
	C361.081787,332.233765 360.323151,332.569000 359.426270,333.058655 
	C354.963409,333.109619 350.940216,333.067535 346.458618,333.096252 
	C342.965912,333.119751 339.931519,333.072418 336.447388,333.096039 
z"/>
<path fill="#B672C4" opacity="1.000000" stroke="none" 
	d="
M292.001312,216.174896 
	C287.966583,216.682678 283.930695,216.746002 279.438782,216.714645 
	C279.173859,209.292465 279.364899,201.964966 279.777649,194.279114 
	C292.000000,194.179123 291.999969,194.179123 292.000000,206.258286 
	C292.000000,209.415665 292.000092,212.573029 292.001312,216.174896 
z"/>
</svg>